<svg width="611" height="360" viewBox="0 0 611 360" fill="none" xmlns="http://www.w3.org/2000/svg">
<g clip-path="url(#clip0)">
<rect x="46" y="187" width="149" height="83" fill="#00CCFF"/>
<ellipse cx="212" cy="82" rx="85" ry="81" fill="#A049F8"/>
<path fill-rule="evenodd" clip-rule="evenodd" d="M447.774 322.479L578.314 331.818L530.339 210.056L512.891 233.813L431.117 173.758L382.918 239.387L464.693 299.443L447.774 322.479Z" fill="#F5C370"/>
<path d="M101.57 279.898C101.57 289.299 98.888 296.5 93.5234 301.5C88.1849 306.5 80.4635 309 70.3594 309H54.1875V251.891H72.1172C81.4401 251.891 88.6797 254.352 93.8359 259.273C98.9922 264.195 101.57 271.07 101.57 279.898ZM88.9922 280.211C88.9922 267.945 83.5755 261.812 72.7422 261.812H66.2969V299H71.4922C83.1589 299 88.9922 292.737 88.9922 280.211ZM130.867 300.289C132.951 300.289 135.451 299.833 138.367 298.922V307.789C135.398 309.117 131.753 309.781 127.43 309.781C122.664 309.781 119.188 308.583 117 306.188C114.839 303.766 113.758 300.146 113.758 295.328V274.273H108.055V269.234L114.617 265.25L118.055 256.031H125.672V265.328H137.898V274.273H125.672V295.328C125.672 297.021 126.141 298.271 127.078 299.078C128.042 299.885 129.305 300.289 130.867 300.289ZM156.727 287.086C156.727 291.409 157.43 294.677 158.836 296.891C160.268 299.104 162.586 300.211 165.789 300.211C168.966 300.211 171.245 299.117 172.625 296.93C174.031 294.716 174.734 291.435 174.734 287.086C174.734 282.763 174.031 279.521 172.625 277.359C171.219 275.198 168.914 274.117 165.711 274.117C162.534 274.117 160.242 275.198 158.836 277.359C157.43 279.495 156.727 282.737 156.727 287.086ZM186.922 287.086C186.922 294.195 185.047 299.755 181.297 303.766C177.547 307.776 172.326 309.781 165.633 309.781C161.44 309.781 157.742 308.87 154.539 307.047C151.336 305.198 148.875 302.555 147.156 299.117C145.438 295.68 144.578 291.669 144.578 287.086C144.578 279.951 146.44 274.404 150.164 270.445C153.888 266.487 159.122 264.508 165.867 264.508C170.06 264.508 173.758 265.419 176.961 267.242C180.164 269.065 182.625 271.682 184.344 275.094C186.062 278.505 186.922 282.503 186.922 287.086ZM195.086 303.414C195.086 301.227 195.672 299.573 196.844 298.453C198.016 297.333 199.721 296.773 201.961 296.773C204.122 296.773 205.789 297.346 206.961 298.492C208.159 299.638 208.758 301.279 208.758 303.414C208.758 305.471 208.159 307.099 206.961 308.297C205.763 309.469 204.096 310.055 201.961 310.055C199.773 310.055 198.081 309.482 196.883 308.336C195.685 307.164 195.086 305.523 195.086 303.414Z" fill="black"/>
<path d="M197.632 176.08L196.549 174.399L193.768 176.191L196.647 177.821L197.632 176.08ZM81.6724 142.54L79.6955 142.237L79.4031 144.145L81.2992 144.505L81.6724 142.54ZM128.212 151.38L127.839 153.345L130.008 153.757L130.204 151.558L128.212 151.38ZM128.472 158.14V156.14H126.472V158.14H128.472ZM128.472 195.84H126.472V197.84H128.472V195.84ZM127.952 204.94L129.923 204.6L129.582 202.618L127.601 202.971L127.952 204.94ZM79.8524 213.52L79.5012 211.551L77.6013 211.89L77.8722 213.801L79.8524 213.52ZM198.716 177.761C210.979 169.858 217.832 158.049 217.832 142.28H213.832C213.832 156.671 207.685 167.222 196.549 174.399L198.716 177.761ZM217.832 142.28C217.832 108.891 189.306 84.9 149.792 84.9V88.9C187.759 88.9 213.832 111.709 213.832 142.28H217.832ZM149.792 84.9C131.61 84.9 115.484 90.0123 103.178 99.797C90.8559 109.594 82.4953 123.971 79.6955 142.237L83.6493 142.843C86.3095 125.489 94.1989 112.046 105.667 102.928C117.151 93.7976 132.355 88.9 149.792 88.9V84.9ZM81.2992 144.505L127.839 153.345L128.586 149.415L82.0456 140.575L81.2992 144.505ZM130.204 151.558C130.959 143.138 133.449 137.377 136.882 133.74C140.284 130.137 144.797 128.42 150.052 128.42V124.42C143.868 124.42 138.241 126.473 133.973 130.995C129.736 135.483 127.026 142.202 126.22 151.202L130.204 151.558ZM150.052 128.42C155.667 128.42 160.104 130.005 163.106 132.61C166.081 135.192 167.812 138.914 167.812 143.58H171.812C171.812 137.846 169.644 132.988 165.728 129.59C161.841 126.215 156.398 124.42 150.052 124.42V128.42ZM167.812 143.58C167.812 147.593 166.129 150.615 163.034 152.715C159.846 154.879 155.028 156.14 148.752 156.14V160.14C155.477 160.14 161.189 158.801 165.28 156.025C169.466 153.185 171.812 148.927 171.812 143.58H167.812ZM148.752 156.14H128.472V160.14H148.752V156.14ZM126.472 158.14V195.84H130.472V158.14H126.472ZM128.472 197.84H150.052V193.84H128.472V197.84ZM150.052 197.84C156.586 197.84 161.52 199.166 164.764 201.442C167.913 203.652 169.632 206.865 169.632 211.18H173.632C173.632 205.615 171.322 201.158 167.061 198.168C162.895 195.244 157.039 193.84 150.052 193.84V197.84ZM169.632 211.18C169.632 215.785 167.752 219.577 164.536 222.252C161.29 224.952 156.571 226.6 150.832 226.6V230.6C157.314 230.6 162.995 228.738 167.094 225.328C171.222 221.893 173.632 216.975 173.632 211.18H169.632ZM150.832 226.6C145.235 226.6 140.697 224.655 137.228 221.04C133.719 217.384 131.179 211.883 129.923 204.6L125.981 205.28C127.326 213.077 130.116 219.406 134.342 223.81C138.608 228.255 144.21 230.6 150.832 230.6V226.6ZM127.601 202.971L79.5012 211.551L80.2036 215.489L128.304 206.909L127.601 202.971ZM77.8722 213.801C82.9818 249.837 112.884 270.9 150.312 270.9V266.9C114.421 266.9 86.603 246.883 81.8326 213.239L77.8722 213.801ZM150.312 270.9C191.117 270.9 220.432 246.396 220.432 211.96H216.432C216.432 243.564 189.587 266.9 150.312 266.9V270.9ZM220.432 211.96C220.432 195.39 213.034 182.5 198.618 174.339L196.647 177.821C209.791 185.26 216.432 196.81 216.432 211.96H220.432ZM314.888 84.9C290.676 84.9 270.355 94.2962 256.113 110.712C241.892 127.103 233.848 150.349 233.848 177.9H237.848C237.848 151.111 245.665 128.857 259.134 113.333C272.582 97.8338 291.781 88.9 314.888 88.9V84.9ZM233.848 177.9C233.848 205.579 241.891 228.827 256.114 245.187C270.359 261.572 290.681 270.9 314.888 270.9V266.9C291.776 266.9 272.578 258.028 259.133 242.563C245.666 227.073 237.848 204.821 237.848 177.9H233.848ZM314.888 270.9C338.97 270.9 359.164 261.569 373.31 245.182C387.433 228.821 395.408 205.575 395.408 177.9H391.408C391.408 204.825 383.653 227.079 370.282 242.568C356.933 258.031 337.866 266.9 314.888 266.9V270.9ZM395.408 177.9C395.408 150.353 387.432 127.108 373.311 110.717C359.167 94.2995 338.975 84.9 314.888 84.9V88.9C337.862 88.9 356.929 97.8304 370.281 113.328C383.654 128.852 391.408 151.107 391.408 177.9H395.408ZM314.888 224.26C306.981 224.26 300.435 220.299 295.769 212.553C291.053 204.724 288.288 193.039 288.288 177.9H284.288C284.288 193.441 287.114 205.936 292.343 214.617C297.622 223.381 305.376 228.26 314.888 228.26V224.26ZM288.288 177.9C288.288 162.761 291.053 151.144 295.765 143.383C300.425 135.708 306.969 131.8 314.888 131.8V127.8C305.388 127.8 297.631 132.602 292.346 141.307C287.113 149.926 284.288 162.359 284.288 177.9H288.288ZM314.888 131.8C322.662 131.8 329.075 135.691 333.645 143.368C338.266 151.132 340.968 162.754 340.968 177.9H344.968C344.968 162.366 342.211 149.938 337.082 141.322C331.902 132.619 324.275 127.8 314.888 127.8V131.8ZM340.968 177.9C340.968 193.045 338.266 204.736 333.641 212.568C329.065 220.316 322.649 224.26 314.888 224.26V228.26C324.287 228.26 331.911 223.364 337.085 214.602C342.21 205.924 344.968 193.435 344.968 177.9H340.968ZM434.971 265L433.343 263.838L431.087 267H434.971V265ZM455.171 265V267H456.202L456.8 266.16L455.171 265ZM550.571 131L552.2 132.16L554.45 129H550.571V131ZM530.571 131V129H529.541L528.943 129.838L530.571 131ZM447.571 126C427.234 126 409.571 140.335 409.571 162.6H413.571C413.571 142.865 429.107 130 447.571 130V126ZM409.571 162.6C409.571 184.865 427.234 199.2 447.571 199.2V195.2C429.107 195.2 413.571 182.335 413.571 162.6H409.571ZM447.571 199.2C467.73 199.2 485.171 184.845 485.171 162.6H481.171C481.171 182.355 465.812 195.2 447.571 195.2V199.2ZM485.171 162.6C485.171 140.355 467.73 126 447.571 126V130C465.812 130 481.171 142.845 481.171 162.6H485.171ZM434.971 267H455.171V263H434.971V267ZM456.8 266.16L552.2 132.16L548.941 129.84L453.541 263.84L456.8 266.16ZM550.571 129H530.571V133H550.571V129ZM528.943 129.838L433.343 263.838L436.599 266.162L532.199 132.162L528.943 129.838ZM447.571 151.4C452.728 151.4 457.971 155.366 457.971 162.6H461.971C461.971 153.034 454.813 147.4 447.571 147.4V151.4ZM457.971 162.6C457.971 169.655 452.707 173.8 447.571 173.8V177.8C454.834 177.8 461.971 171.945 461.971 162.6H457.971ZM447.571 173.8C442.173 173.8 436.771 169.596 436.771 162.6H432.771C432.771 172.004 440.168 177.8 447.571 177.8V173.8ZM436.771 162.6C436.771 155.424 442.152 151.4 447.571 151.4V147.4C440.19 147.4 432.771 152.976 432.771 162.6H436.771ZM539.171 196.8C518.834 196.8 501.171 211.135 501.171 233.4H505.171C505.171 213.665 520.707 200.8 539.171 200.8V196.8ZM501.171 233.4C501.171 255.665 518.834 270 539.171 270V266C520.707 266 505.171 253.135 505.171 233.4H501.171ZM539.171 270C559.33 270 576.771 255.645 576.771 233.4H572.771C572.771 253.155 557.412 266 539.171 266V270ZM576.771 233.4C576.771 211.155 559.33 196.8 539.171 196.8V200.8C557.412 200.8 572.771 213.645 572.771 233.4H576.771ZM539.171 222.2C544.328 222.2 549.571 226.166 549.571 233.4H553.571C553.571 223.834 546.413 218.2 539.171 218.2V222.2ZM549.571 233.4C549.571 240.455 544.307 244.6 539.171 244.6V248.6C546.434 248.6 553.571 242.745 553.571 233.4H549.571ZM539.171 244.6C533.773 244.6 528.371 240.396 528.371 233.4H524.371C524.371 242.804 531.768 248.6 539.171 248.6V244.6ZM528.371 233.4C528.371 226.224 533.752 222.2 539.171 222.2V218.2C531.79 218.2 524.371 223.776 524.371 233.4H528.371Z" fill="black"/>
</g>
<defs>
<clipPath id="clip0">
<rect width="611" height="360" fill="white"/>
</clipPath>
</defs>
</svg>
